<svg id="Layer_1" data-name="Layer 1" xmlns="http://www.w3.org/2000/svg" viewBox="0 0 79.91 48.3"><defs><style>.cls-1{fill:#fbb03b;}.cls-2{fill:#0071bc;}.cls-3{fill:#c1272d;}</style></defs><title>BJOC-NL-logo</title><path class="cls-1" d="M25.17,9.41c-2.65.37-3.39,1.59-5.3,3a27.36,27.36,0,0,0-7.63,9.27c5.25.16,14.84-3.71,16,2.28a4.56,4.56,0,0,1,0,2.92C24.64,37.13,12.61,45.34,7.63,46.56c-1.8.42-3.55.9-4.77-.53C1.8,44.7.74,41.63,2.33,40.57c3.13-2.12,3.76,1.32,6,.53,6.3-2.17,10.38-7.47,13.25-13.2-3.5-2.75-9.91-.26-13.78.64-2.6.64-5,4.56-7,2.38a2.72,2.72,0,0,1-.27-3.39c6.79-9.11,15.85-22,29-26.39,4-1.32,1,8.11.16,9.86C28.14,14.34,24.59,14.28,25.17,9.41Z"/><path class="cls-2" d="M54.27,8.77a247.85,247.85,0,0,1-14.41,21c-4.24,5.57-6.41,11.93-10,17.6a2.36,2.36,0,0,1-3.45.26c-1.22-1.16-1-3.07-.47-4.66a35.07,35.07,0,0,0,1.37-11c0-9.11-.31-18.38,2.12-26.17.43-1.44,2.07-1.91,3.4-1.7a1.79,1.79,0,0,1,1.64,1.8c-1.17,6.52-2.39,12.4-2.07,19.08.05,2.33-.16,3.5.58,5.78C36.83,26.42,42.7,18.19,51.15,3.9,52.79,1.09,57.51-1.51,58.89,1,60.37,3.84,56,5.86,54.27,8.77Z"/><path class="cls-3" d="M74.67,15.5A56.85,56.85,0,0,1,62,25.84c-4.13,2.65-8.11,5.61-12.51,7.84-1.75,3.66-2.28,9.7-5.19,12.45-2,1.81-5,.38-3.76-2.65.9-2.17,1.91-4.29,2.81-6.46a139.44,139.44,0,0,0,5.51-16.38A83.66,83.66,0,0,1,53,8.93,6,6,0,0,1,55.8,5.81c4.4-2.28,9.7-2.12,14.52-1.91a36.64,36.64,0,0,1,6.47.37c2.22.48,3.6,1.38,3,3.87C79,11.05,76.58,13.28,74.67,15.5ZM58.13,10.58c-2.06,4.18-4.39,9.53-5.14,14.09,6-2.86,11.56-5.77,16.54-10.28.79-.69,4.4-3.66,2.44-4.72C68.84,7.93,61.69,10.2,58.13,10.58Z"/><path class="cls-3" d="M-73.2,97.28"/></svg>