<?xml version="1.0" encoding="utf-8"?>
<!-- Generator: Adobe Illustrator 22.1.0, SVG Export Plug-In . SVG Version: 6.00 Build 0)  -->
<svg version="1.1" id="Layer_1" xmlns="http://www.w3.org/2000/svg" xmlns:xlink="http://www.w3.org/1999/xlink" x="0px" y="0px"
	 viewBox="0 0 85.4 62.2" style="enable-background:new 0 0 85.4 62.2;" xml:space="preserve">
<style type="text/css">
	.st0{fill:#FBB03B;}
	.st1{fill:#0071BC;}
	.st2{fill:#006837;}
	.st3{fill:#C1272D;}
	.st4{fill:url(#SVGID_1_);stroke:#1A1A1A;stroke-width:0.25;stroke-miterlimit:10;}
	.st5{fill:url(#SVGID_2_);stroke:#1A1A1A;stroke-width:0.25;stroke-miterlimit:10;}
	.st6{fill:#5E6A6D;}
</style>
<path class="st0" d="M16.8,9.8c1.4,1.3,3,3,2.2,5.3c-0.8,2.2-2.3,3.9-4.4,5.2c-2.5,1.7-3.8,2.6-6.3,3.3C5.7,24.4,3.3,26,1.6,24
	c-2.3-2.6,1.6-6,2.5-9.2c1-3.3,2.5-6.6,3.7-9.9C8,3.5,8.6,2.1,9.6,1.4c2.2-1.3,4.6-0.3,6.9-1.1c1.9-0.7,4.5-0.5,5.2,2.5
	C22.3,5.3,18.5,8.8,16.8,9.8z M12.4,12.5c-1.4,0.4-3.1,0.8-4.3,1c-1,2.5-2.6,4.7-3.5,7.4c1.7,0.1,4.2-0.6,5.6-1.4
	c2.9-1.6,5.7-3.3,5.9-5.2C16.2,12,13.5,13.2,12.4,12.5z M11.6,3.9c-0.8,1.7-1.9,3.6-2.2,5.4c2.1-0.5,4.2-1,6.2-2.2
	C17.3,6,19,4,17.7,3.5C16.7,3.1,14.7,3.2,11.6,3.9z"/>
<path class="st1" d="M34.9,9.3c-0.7,0.6-1.7,0.3-2.3,0.7C30,16.6,26,26.8,22.3,33.3c-0.4,0.7-1.3,0.7-1.8,0.4
	c-3-1.5-2.6-4.9-4.4-8.4c-0.6-1.3-0.9-2.2-0.2-3.5c0.3-0.5,1-0.6,1.5-0.3c1.3,0.8,2.4,7,4,7.2c1.4-1.9,2.7-4.2,4-7.6
	c1.4-3.5,3.3-7.8,3.5-10c-2.6,0.6-8.8,3-7.6-0.9c0.6-2,3.1-1.6,5.2-1.9c3.3-0.4,5.6-0.7,8-2.1C35,6,35.6,6.4,35.9,6.9
	C36.4,7.9,35.7,8.6,34.9,9.3z"/>
<path class="st2" d="M44.2,20.6c-2.5,2.8-5.8,4.9-8.8,4c-2.2-0.7-2.3-4.1-1.8-6.4c1-4.4,4.7-8.3,8.8-9.3c1.7-0.4,3.6,0,4.4,1.9
	C48.3,14.4,46.8,17.6,44.2,20.6z M42,11.8c-2.9,1.2-5.4,4.5-5.8,7.9c-0.1,1.1,0.4,1.8,1.3,1.9c0.8,0.1,2.5-0.5,3.4-1.6
	c2.3-2.7,3.9-4.2,3.2-7.9C44,11.5,42.7,11.5,42,11.8z"/>
<path class="st3" d="M64,6.7c-0.4,0.8-1,1.9-2.1,1.7c-0.7-0.1-0.4-1.6-0.7-2.1c-1.5,0.4-2.8,1.9-4.2,3.4c-2.7,3-5.1,6.2-6,9.5
	c-0.3,0.9-0.6,2.6,1,2.3c3.4-0.6,6.9-2.5,10-3.8c0.9-0.4,1.4,0.8,0.9,1.3c-2.1,2.4-5,3.7-8.5,5c-2.2,0.8-4.1,1.9-5.6,0.8
	c-1.1-0.8-1.6-1.4-1.6-2.8c0.1-3.2,1.5-5.9,3.8-8.9c1.9-2.6,2.8-3.9,4.9-6.2C58,5,58.9,3.4,61.3,1.9c0.9-0.5,3.3-2.2,3.9-0.3
	C65.7,3.3,64.8,5.1,64,6.7z"/>
<linearGradient id="SVGID_1_" gradientUnits="userSpaceOnUse" x1="55.1512" y1="21.215" x2="55.1512" y2="59.8764">
	<stop  offset="0.3635" style="stop-color:#C1272D"/>
	<stop  offset="0.3661" style="stop-color:#C1292F"/>
	<stop  offset="0.3671" style="stop-color:#C33035"/>
	<stop  offset="0.3677" style="stop-color:#C63B41"/>
	<stop  offset="0.3683" style="stop-color:#CA4C51"/>
	<stop  offset="0.3687" style="stop-color:#CF6267"/>
	<stop  offset="0.3691" style="stop-color:#D67E81"/>
	<stop  offset="0.3695" style="stop-color:#DE9EA0"/>
	<stop  offset="0.3699" style="stop-color:#E7C3C5"/>
	<stop  offset="0.3702" style="stop-color:#F1EDED"/>
	<stop  offset="0.3702" style="stop-color:#F2F2F2"/>
	<stop  offset="0.619" style="stop-color:#F2F2F2"/>
	<stop  offset="0.66" style="stop-color:#F2F2F2"/>
	<stop  offset="0.661" style="stop-color:#C9CADE"/>
	<stop  offset="0.6621" style="stop-color:#A5A6CC"/>
	<stop  offset="0.6633" style="stop-color:#8586BC"/>
	<stop  offset="0.6646" style="stop-color:#696CAF"/>
	<stop  offset="0.6662" style="stop-color:#5356A4"/>
	<stop  offset="0.6679" style="stop-color:#42459C"/>
	<stop  offset="0.6701" style="stop-color:#373A96"/>
	<stop  offset="0.6732" style="stop-color:#303393"/>
	<stop  offset="0.6817" style="stop-color:#2E3192"/>
</linearGradient>
<path class="st4" d="M67.5,30.5c-2.4,5-3.9,7.6-5.8,12.7c-2.2,5.9-2.9,10.4-4.5,15.7c-0.3,1-1.4,1-2.3,0.6
	c-2.4-1.4-1.2-6.9-2.5-11.4c-0.9-3.2-2-7.2-2.5-10.1c-2.8,5.2-5.9,14.3-7.6,19.3c-0.3,0.9-0.1,2.3-1.3,2.5c-3,0.3-2.4-3.3-1.7-5.1
	c1.6-4.1,2.4-7.4,4.2-12c1.1-3,1.5-4.9,2.9-7.7c1.1-2.5,1.6-4.4,3.4-6.1c1-0.9,2-1.3,3.2-1.1c2.8,0.7,1.1,4.4,1.8,6.9
	c0.9,2.9,0.4,5.9,2.1,8.8c3.4-8.4,6.9-16.6,11.2-21.5c1-1.1,3.3-1.3,3.5,0.4C71.9,25.6,69,27.3,67.5,30.5z"/>
<linearGradient id="SVGID_2_" gradientUnits="userSpaceOnUse" x1="73.9888" y1="22.3591" x2="73.9888" y2="61.783">
	<stop  offset="0.3635" style="stop-color:#C1272D"/>
	<stop  offset="0.3661" style="stop-color:#C1292F"/>
	<stop  offset="0.3671" style="stop-color:#C33035"/>
	<stop  offset="0.3677" style="stop-color:#C63B41"/>
	<stop  offset="0.3683" style="stop-color:#CA4C51"/>
	<stop  offset="0.3687" style="stop-color:#CF6267"/>
	<stop  offset="0.3691" style="stop-color:#D67E81"/>
	<stop  offset="0.3695" style="stop-color:#DE9EA0"/>
	<stop  offset="0.3699" style="stop-color:#E7C3C5"/>
	<stop  offset="0.3702" style="stop-color:#F1EDED"/>
	<stop  offset="0.3702" style="stop-color:#F2F2F2"/>
	<stop  offset="0.619" style="stop-color:#F2F2F2"/>
	<stop  offset="0.66" style="stop-color:#F2F2F2"/>
	<stop  offset="0.661" style="stop-color:#C9CADE"/>
	<stop  offset="0.6621" style="stop-color:#A5A6CC"/>
	<stop  offset="0.6633" style="stop-color:#8586BC"/>
	<stop  offset="0.6646" style="stop-color:#696CAF"/>
	<stop  offset="0.6662" style="stop-color:#5356A4"/>
	<stop  offset="0.6679" style="stop-color:#42459C"/>
	<stop  offset="0.6701" style="stop-color:#373A96"/>
	<stop  offset="0.6732" style="stop-color:#303393"/>
	<stop  offset="0.6817" style="stop-color:#2E3192"/>
</linearGradient>
<path class="st5" d="M83.9,51.9c-5.7,3.5-11.9,5.6-17.4,9.5c-1.2,0.8-3.4,0-3.5-1.6c-0.2-4.9,2.8-8.1,4.7-13.7
	c1.2-3.5,2.8-6.2,4.2-9.6c1.8-4.2,2.4-5.4,3.6-9.7c0.7-2.4,3-6.7,5.9-3.4c1.4,1.6-1.9,5.3-3.2,8.6c-1.7,4.4-6.6,13.1-8.1,20.6
	c4.6-0.7,8.8-2.9,13.3-3.9c0.6-0.1,1.2,0.4,1.5,1C85.3,50.7,84.6,51.5,83.9,51.9z"/>
<path class="st6" d="M14.9,50c-0.4-0.1-0.9-0.2-1.4-0.4c-5-2.4-7.8-6.2-9.3-12.7c-0.2-1-0.4-2-0.5-2.9c-0.2-0.1-0.3-0.2-0.4-0.2
	c-0.8,0.4-1.7,1.7-2.3,0c-0.2-0.5,0.6-2.2,1.2-2.6C3.7,30,5.3,29.1,7,28.4c0,0,0.1,0,0.2-0.1c1-0.2,1.9,0.6,1.9,1.6
	c0,0.1,0,0.2,0,0.3c-0.1,0.7-1.2,0.8-1.6,0.9c-1.6,0.4-1.6,1.6-1.4,3.4c1.1,9,6.8,14.3,14.1,13.1c7.7-1.3,13.4-7.2,18.5-14.7
	c0.1-0.2,0.3-0.5,0.4-0.6c0.1-0.2,0.3-0.5,0.1-0.6c-0.1-0.1-0.2-0.3-0.3-0.3c-0.6-0.5-1.9-0.7-1.2-2.2c0.3-0.6,1.6-0.9,2.2-0.5
	c1.2,0.8,2.3,2.1,3.2,3.4c0.3,0.4,0.7,1.3,0.2,2.1c-0.2,0.4-1.2,0.4-1.5,0.1c-1.1-1-1.4,0.3-1.9,1.1c-3.6,5.7-7.8,10.5-13,13.1
	C25.1,49.3,17.5,50.7,14.9,50z"/>
</svg>
